<svg xmlns="http://www.w3.org/2000/svg" width="480" height="600" viewBox="0 0 480 600"><defs><linearGradient id="bg" x2="1" y2="1"><stop stop-color="#f6f0ff"/><stop offset="1" stop-color="#d8c6ef"/></linearGradient><linearGradient id="cover" x2="1" y2="1"><stop stop-color="#4f365f"/><stop offset="1" stop-color="#20192a"/></linearGradient><filter id="shadow"><feDropShadow dx="0" dy="12" stdDeviation="12" flood-opacity=".16"/></filter></defs><rect x="10" y="10" width="460" height="580" rx="20" fill="#fbf9ff" stroke="#dbcdea" stroke-width="2"/><circle cx="240" cy="187" r="45" fill="#e9e0f3"/><path d="M221 168h19v22c0 17-8 25-19 29v-10c6-4 8-8 8-14h-8zm31 0h19v22c0 17-8 25-19 29v-10c6-4 8-8 8-14h-8z" fill="#a088b6"/><text x="240" y="300" text-anchor="middle" font-family="Arial" font-size="22" fill="#655172">Témoignage 2</text><text x="240" y="339" text-anchor="middle" font-family="Arial" font-size="15" fill="#877491">Image à ajouter</text><path d="M100 400h280m-250 24h220m-190 24h160" stroke="#e8e0ef" stroke-width="10" stroke-linecap="round"/></svg>